HIERARCHY
ROOT hips
{
	OFFSET -0.003675 0.299928 -0.021708
	CHANNELS 6 Xposition Yposition Zposition Xrotation Yrotation Zrotation
	JOINT LowerBack
	{
		OFFSET 0.000919 0.177588 0.009275
		CHANNELS 3 Xrotation Yrotation Zrotation
		JOINT spine
		{
			OFFSET 0.000919 0.177588 0.009275
			CHANNELS 3 Xrotation Yrotation Zrotation
			JOINT chest
			{
				OFFSET 0.000456 0.100015 0.004638
				CHANNELS 3 Xrotation Yrotation Zrotation
				JOINT neck
				{
					OFFSET 0.000456 0.100015 0.004638
					CHANNELS 3 Xrotation Yrotation Zrotation
					JOINT head
					{
						OFFSET 0.000924 0.155147 0.009274
						CHANNELS 6 Xposition Yposition Zposition Xrotation Yrotation Zrotation
						End Site
						{
							OFFSET 0.000000 0.153400 0.000000
						}
					}
				}
				JOINT shoulder.L
				{
					OFFSET 0.019937 0.078966 0.057518
					CHANNELS 6 Xposition Yposition Zposition Yrotation Xrotation Zrotation
					JOINT upper_arm.L
					{
						OFFSET 0.177024 -0.020465 -0.095062
						CHANNELS 6 Xposition Yposition Zposition Xrotation Yrotation Zrotation
						JOINT forearm.L
						{
							OFFSET 0.247100 -0.135500 -0.061800
							CHANNELS 3 Xrotation Yrotation Zrotation
							JOINT hand.L
							{
								OFFSET 0.217000 -0.143000 0.039300
								CHANNELS 3 Xrotation Yrotation Zrotation
								JOINT palm.01.L
								{
									OFFSET 0.021770 -0.038291 0.012954
									CHANNELS 6 Xposition Yposition Zposition Yrotation Xrotation Zrotation
									JOINT f_index.01.L
									{
										OFFSET 0.053215 -0.044137 0.008236
										CHANNELS 3 Xrotation Yrotation Zrotation
										JOINT f_index.02.L
										{
											OFFSET 0.036108 -0.024723 -0.010656
											CHANNELS 3 Xrotation Yrotation Zrotation
											JOINT f_index.03.L
											{
												OFFSET 0.021342 -0.014948 -0.010846
												CHANNELS 3 Xrotation Yrotation Zrotation
												End Site
												{
													OFFSET 0.015600 -0.009860 -0.013421
												}
											}
										}
									}
									JOINT thumb.01.L
									{
										OFFSET -0.009090 -0.002348 -0.024223
										CHANNELS 6 Xposition Yposition Zposition Xrotation Yrotation Zrotation
										JOINT thumb.02.L
										{
											OFFSET 0.019713 -0.035076 -0.011120
											CHANNELS 3 Xrotation Yrotation Zrotation
											JOINT thumb.03.L
											{
												OFFSET 0.024877 -0.021748 -0.005176
												CHANNELS 3 Xrotation Yrotation Zrotation
												End Site
												{
													OFFSET 0.016125 -0.013029 -0.001569
												}
											}
										}
									}
								}
								JOINT palm.02.L
								{
									OFFSET 0.032823 -0.025104 0.012281
									CHANNELS 6 Xposition Yposition Zposition Yrotation Xrotation Zrotation
									JOINT f_middle.01.L
									{
										OFFSET 0.055723 -0.038469 0.008037
										CHANNELS 3 Xrotation Yrotation Zrotation
										JOINT f_middle.02.L
										{
											OFFSET 0.038167 -0.027473 -0.015582
											CHANNELS 3 Xrotation Yrotation Zrotation
											JOINT f_middle.03.L
											{
												OFFSET 0.021707 -0.016587 -0.017037
												CHANNELS 3 Xrotation Yrotation Zrotation
												End Site
												{
													OFFSET 0.014112 -0.010584 -0.014294
												}
											}
										}
									}
								}
								JOINT palm.03.L
								{
									OFFSET 0.039230 -0.011402 0.008390
									CHANNELS 6 Xposition Yposition Zposition Yrotation Xrotation Zrotation
									JOINT f_ring.01.L
									{
										OFFSET 0.061796 -0.031470 0.007910
										CHANNELS 3 Xrotation Yrotation Zrotation
										JOINT f_ring.02.L
										{
											OFFSET 0.033092 -0.023401 -0.019127
											CHANNELS 3 Xrotation Yrotation Zrotation
											JOINT f_ring.03.L
											{
												OFFSET 0.021392 -0.015362 -0.017824
												CHANNELS 3 Xrotation Yrotation Zrotation
												End Site
												{
													OFFSET 0.008670 -0.007297 -0.014686
												}
											}
										}
									}
								}
								JOINT palm.04.L
								{
									OFFSET 0.043417 0.002450 0.002889
									CHANNELS 6 Xposition Yposition Zposition Yrotation Xrotation Zrotation
									JOINT f_pinky.01.L
									{
										OFFSET 0.069986 -0.026156 0.003627
										CHANNELS 3 Xrotation Yrotation Zrotation
										JOINT f_pinky.02.L
										{
											OFFSET 0.018520 -0.012813 -0.016429
											CHANNELS 3 Xrotation Yrotation Zrotation
											JOINT f_pinky.03.L
											{
												OFFSET 0.013822 -0.009796 -0.014947
												CHANNELS 3 Xrotation Yrotation Zrotation
												End Site
												{
													OFFSET 0.007238 -0.006103 -0.011657
												}
											}
										}
									}
								}
							}
						}
					}
				}
				JOINT shoulder.R
				{
					OFFSET -0.016662 0.078957 0.057696
					CHANNELS 6 Xposition Yposition Zposition Yrotation Xrotation Zrotation
					JOINT upper_arm.R
					{
						OFFSET -0.176972 -0.020537 -0.095144
						CHANNELS 6 Xposition Yposition Zposition Xrotation Yrotation Zrotation
						JOINT forearm.R
						{
							OFFSET -0.247100 -0.135500 -0.061800
							CHANNELS 3 Xrotation Yrotation Zrotation
							JOINT hand.R
							{
								OFFSET -0.217000 -0.143000 0.039300
								CHANNELS 3 Xrotation Yrotation Zrotation
								JOINT palm.01.R
								{
									OFFSET -0.021773 -0.038278 0.012988
									CHANNELS 6 Xposition Yposition Zposition Yrotation Xrotation Zrotation
									JOINT f_index.01.R
									{
										OFFSET -0.053212 -0.044139 0.008249
										CHANNELS 3 Xrotation Yrotation Zrotation
										JOINT f_index.02.R
										{
											OFFSET -0.036049 -0.024835 -0.010634
											CHANNELS 3 Xrotation Yrotation Zrotation
											JOINT f_index.03.R
											{
												OFFSET -0.021371 -0.014881 -0.010866
												CHANNELS 3 Xrotation Yrotation Zrotation
												End Site
												{
													OFFSET -0.015584 -0.009883 -0.013422
												}
											}
										}
									}
									JOINT thumb.01.R
									{
										OFFSET 0.009113 -0.002381 -0.024211
										CHANNELS 6 Xposition Yposition Zposition Xrotation Yrotation Zrotation
										JOINT thumb.02.R
										{
											OFFSET -0.019694 -0.035097 -0.011088
											CHANNELS 3 Xrotation Yrotation Zrotation
											JOINT thumb.03.R
											{
												OFFSET -0.024867 -0.021762 -0.005168
												CHANNELS 3 Xrotation Yrotation Zrotation
												End Site
												{
													OFFSET -0.016120 -0.013036 -0.001565
												}
											}
										}
									}
								}
								JOINT palm.02.R
								{
									OFFSET -0.032828 -0.025095 0.012286
									CHANNELS 6 Xposition Yposition Zposition Yrotation Xrotation Zrotation
									JOINT f_middle.01.R
									{
										OFFSET -0.055721 -0.038472 0.008040
										CHANNELS 3 Xrotation Yrotation Zrotation
										JOINT f_middle.02.R
										{
											OFFSET -0.038101 -0.027593 -0.015557
											CHANNELS 3 Xrotation Yrotation Zrotation
											JOINT f_middle.03.R
											{
												OFFSET -0.021730 -0.016530 -0.017054
												CHANNELS 3 Xrotation Yrotation Zrotation
												End Site
												{
													OFFSET -0.014096 -0.010608 -0.014293
												}
											}
										}
									}
								}
								JOINT palm.03.R
								{
									OFFSET -0.039192 -0.011488 0.008390
									CHANNELS 6 Xposition Yposition Zposition Yrotation Xrotation Zrotation
									JOINT f_ring.01.R
									{
										OFFSET -0.061839 -0.031387 0.007876
										CHANNELS 3 Xrotation Yrotation Zrotation
										JOINT f_ring.02.R
										{
											OFFSET -0.033068 -0.023437 -0.019125
											CHANNELS 3 Xrotation Yrotation Zrotation
											JOINT f_ring.03.R
											{
												OFFSET -0.021371 -0.015393 -0.017822
												CHANNELS 3 Xrotation Yrotation Zrotation
												End Site
												{
													OFFSET -0.008654 -0.007321 -0.014684
												}
											}
										}
									}
								}
								JOINT palm.04.R
								{
									OFFSET -0.043421 0.002443 0.002845
									CHANNELS 6 Xposition Yposition Zposition Yrotation Xrotation Zrotation
									JOINT f_pinky.01.R
									{
										OFFSET -0.069983 -0.026169 0.003599
										CHANNELS 3 Xrotation Yrotation Zrotation
										JOINT f_pinky.02.R
										{
											OFFSET -0.018501 -0.012842 -0.016428
											CHANNELS 3 Xrotation Yrotation Zrotation
											JOINT f_pinky.03.R
											{
												OFFSET -0.013806 -0.009821 -0.014946
												CHANNELS 3 Xrotation Yrotation Zrotation
												End Site
												{
													OFFSET -0.007226 -0.006121 -0.011655
												}
											}
										}
									}
								}
							}
						}
					}
				}
			}
		}
	}
	JOINT pelvis.L
	{
		OFFSET 0.000000 0.000000 0.000000
		CHANNELS 6 Xposition Yposition Zposition Xrotation Yrotation Zrotation
		JOINT thigh.L
		{
			OFFSET 0.101675 0.001054 -0.000000
			CHANNELS 3 Xrotation Yrotation Zrotation
			JOINT shin.L
			{
				OFFSET 0.000000 -0.534800 0.041000
				CHANNELS 3 Xrotation Yrotation Zrotation
				JOINT foot.L
				{
					OFFSET 0.000000 -0.452000 -0.044800
					CHANNELS 3 Xrotation Yrotation Zrotation
					JOINT toe.L
					{
						OFFSET -0.000000 -0.068500 0.109600
						CHANNELS 3 Xrotation Yrotation Zrotation
						End Site
						{
							OFFSET -0.000000 0.000000 0.067200
						}
					}
				}
				JOINT heel.L
				{
					OFFSET 0.000000 -0.452000 -0.044800
					CHANNELS 3 Xrotation Yrotation Zrotation
					JOINT heel.02.L
					{
						OFFSET -0.038000 -0.085200 0.016200
						CHANNELS 6 Xposition Yposition Zposition Xrotation Yrotation Zrotation
						End Site
						{
							OFFSET 0.080000 -0.000000 0.000000
						}
					}
				}
			}
		}
	}
	JOINT pelvis.R
	{
		OFFSET 0.000000 0.000000 0.000000
		CHANNELS 6 Xposition Yposition Zposition Xrotation Yrotation Zrotation
		JOINT thigh.R
		{
			OFFSET -0.094325 0.001054 0.000000
			CHANNELS 3 Xrotation Yrotation Zrotation
			JOINT shin.R
			{
				OFFSET 0.000000 -0.534800 0.041000
				CHANNELS 3 Xrotation Yrotation Zrotation
				JOINT foot.R
				{
					OFFSET 0.000000 -0.452000 -0.044800
					CHANNELS 3 Xrotation Yrotation Zrotation
					JOINT toe.R
					{
						OFFSET -0.000000 -0.068500 0.109600
						CHANNELS 3 Xrotation Yrotation Zrotation
						End Site
						{
							OFFSET -0.000000 0.000000 0.067200
						}
					}
				}
				JOINT heel.R
				{
					OFFSET 0.000000 -0.452000 -0.044800
					CHANNELS 3 Xrotation Yrotation Zrotation
					JOINT heel.02.R
					{
						OFFSET 0.038000 -0.085200 0.016200
						CHANNELS 6 Xposition Yposition Zposition Xrotation Yrotation Zrotation
						End Site
						{
							OFFSET -0.080000 0.000000 -0.000000
						}
					}
				}
			}
		}
	}
}
MOTION
Frames: 4
Frame Time: 0.041667
-0.003675 0.299928 -0.021708 0.000000 -0.000000 0.000000 -0.000001 0.000000 0.000000 -0.000000 0.000000 0.000000 -0.000000 0.000000 0.000000 -0.000000 -0.000000 -0.000000 0.000924 0.155147 0.009274 -0.000001 -0.000000 -0.000000 0.019937 0.078966 0.057518 0.000001 0.000001 -0.000005 0.177024 -0.020465 -0.095062 -0.000006 -0.000003 0.000015 -0.000009 -0.000004 -0.000009 -0.000000 0.000000 0.000001 0.021770 -0.038291 0.012954 0.000001 -0.000001 0.000001 -0.000001 -0.000001 -0.000002 -0.000001 -0.000000 0.000007 -0.000000 0.000000 0.000003 -0.009090 -0.002348 -0.024224 -0.000002 0.000001 0.000001 0.000001 -0.000001 0.000001 -0.000000 0.000000 -0.000001 0.032823 -0.025104 0.012281 0.000000 -0.000000 0.000000 0.000001 0.000004 -0.000003 -0.000001 -0.000000 -0.000000 -0.000001 -0.000003 0.000003 0.039230 -0.011402 0.008390 -0.000000 -0.000000 0.000008 0.000001 0.000001 -0.000000 -0.000001 0.000003 -0.000001 0.000002 0.000002 -0.000000 0.043417 0.002450 0.002889 -0.000000 0.000001 0.000002 -0.000001 -0.000003 0.000001 -0.000000 0.000003 -0.000000 -0.000000 -0.000003 0.000001 -0.016662 0.078956 0.057696 -0.000001 0.000002 0.000011 -0.176972 -0.020537 -0.095144 0.000001 -0.000003 -0.000005 -0.000006 0.000005 -0.000014 -0.000001 -0.000000 0.000000 -0.021773 -0.038278 0.012988 0.000000 -0.000001 -0.000003 -0.000001 0.000001 -0.000003 -0.000001 -0.000000 0.000001 0.000001 0.000002 0.000007 0.009113 -0.002381 -0.024211 0.000002 -0.000001 0.000004 -0.000000 0.000001 0.000002 0.000000 0.000000 -0.000003 -0.032828 -0.025095 0.012286 0.000001 -0.000001 -0.000001 -0.000001 0.000003 -0.000003 -0.000002 0.000004 -0.000001 0.000001 -0.000002 -0.000000 -0.039192 -0.011488 0.008390 0.000000 0.000000 0.000001 -0.000000 0.000003 -0.000003 -0.000001 0.000001 0.000002 -0.000001 0.000000 -0.000003 -0.043421 0.002443 0.002844 -0.000000 -0.000001 0.000000 -0.000007 0.000003 -0.000002 -0.000003 -0.000000 -0.000000 0.000001 -0.000000 0.000001 -0.000000 0.000000 -0.000000 -0.000001 -0.000000 0.000001 0.000009 -0.000202 0.000014 -0.000026 0.000202 -0.000015 0.000000 -0.000000 -0.000000 0.000002 -0.000000 -0.000000 0.000000 0.000000 -0.000000 -0.038000 -0.085200 0.016200 0.000000 0.000000 0.000000 0.000000 -0.000000 -0.000000 -0.000001 0.000000 -0.000004 0.000008 -0.000013 0.000005 -0.000012 0.000013 -0.000001 -0.000003 -0.000000 -0.000000 0.000000 -0.000000 -0.000000 0.000002 -0.000000 -0.000000 0.038000 -0.085200 0.016200 0.000002 -0.000000 0.000000 
-0.002910 0.288025 -0.017289 3.858416 130.527989 -2.227202 0.000000 0.000000 -0.000000 -0.000000 -0.000000 -0.000000 -0.000000 0.000001 0.000000 0.000000 -0.000002 -0.000000 0.000924 0.155147 0.009274 15.121129 -0.014227 0.668155 0.019937 0.078966 0.057518 -1.617459 7.335274 36.237132 0.177025 -0.020465 -0.095062 -26.225686 5.241978 -42.433592 -0.584957 -4.201170 30.937922 -0.000002 0.000001 -0.000001 0.021770 -0.038291 0.012954 0.000001 -0.000000 0.000001 -0.000005 0.000000 -0.000000 -0.000000 -0.000002 0.000006 0.000001 -0.000001 0.000001 -0.009090 -0.002348 -0.024223 0.000001 0.000001 -0.000001 -0.000000 0.000000 0.000001 -0.000001 0.000001 -0.000002 0.032823 -0.025104 0.012281 -0.000002 0.000003 0.000002 0.000001 0.000002 -0.000005 -0.000003 -0.000002 0.000003 0.000002 -0.000005 -0.000002 0.039230 -0.011402 0.008390 -0.000002 0.000002 0.000004 -0.000001 0.000001 -0.000004 -0.000000 0.000009 0.000001 0.000004 -0.000002 0.000003 0.043417 0.002450 0.002889 -0.000001 0.000001 -0.000002 -0.000001 -0.000003 0.000001 0.000001 0.000005 0.000001 0.000003 0.000000 0.000002 -0.016662 0.078957 0.057696 -12.984406 9.520933 -37.567687 -0.176972 -0.020537 -0.095144 -19.625727 0.398886 28.916904 -0.722972 3.870828 -30.540180 -0.000000 0.000000 0.000002 -0.021773 -0.038278 0.012988 0.000000 0.000001 0.000002 -0.000003 0.000002 -0.000005 -0.000000 0.000004 -0.000007 0.000002 -0.000003 -0.000000 0.009114 -0.002381 -0.024211 -0.000002 0.000002 -0.000003 0.000001 -0.000003 0.000000 -0.000001 0.000005 -0.000003 -0.032828 -0.025095 0.012286 0.000001 -0.000000 0.000001 -0.000000 0.000006 -0.000001 0.000002 0.000003 -0.000000 -0.000001 0.000002 -0.000007 -0.039192 -0.011488 0.008390 -0.000003 0.000004 0.000001 0.000000 -0.000001 0.000002 -0.000001 0.000000 -0.000000 -0.000001 0.000003 0.000003 -0.043421 0.002443 0.002844 -0.000002 0.000001 0.000002 -0.000005 0.000003 0.000001 0.000001 -0.000004 -0.000002 -0.000002 0.000002 0.000002 -0.000000 0.000000 -0.000000 -1.204531 0.053654 -1.782042 -2.707937 -0.467269 -5.763627 10.590701 0.802473 -8.122088 0.000000 0.000001 0.000003 -0.000000 0.000000 0.000002 0.000002 -0.000003 0.000001 -0.038000 -0.085200 0.016200 -0.000000 0.000003 0.000002 0.000000 0.000000 -0.000000 -1.177191 0.053089 -0.547882 -0.632109 0.545385 6.812701 17.834645 -0.012020 0.121707 -0.000002 -0.000001 -0.000002 0.000004 0.000006 0.000001 0.000000 0.000001 0.000002 0.038000 -0.085200 0.016200 -0.000005 0.000001 0.000000 
-0.006189 0.291607 -0.014854 0.619564 150.063737 2.209072 -0.000000 0.000001 -0.000000 -0.000000 0.000002 0.000000 -0.000000 0.000001 0.000000 -0.000000 -0.000001 0.000000 0.000924 0.155147 0.009274 11.038001 -0.011507 -0.993616 0.019937 0.078966 0.057518 8.045589 7.845051 34.798431 0.177025 -0.020465 -0.095062 -15.726567 4.805022 -33.896101 -0.642024 -1.950123 27.534431 -0.000001 -0.000001 0.000001 0.021770 -0.038291 0.012954 -0.000001 0.000001 -0.000002 0.000000 -0.000001 0.000001 -0.000000 -0.000003 0.000005 -0.000002 0.000003 -0.000002 -0.009090 -0.002348 -0.024223 0.000003 -0.000003 0.000000 0.000002 -0.000000 0.000001 0.000000 0.000001 -0.000002 0.032823 -0.025104 0.012281 -0.000003 -0.000000 0.000002 0.000001 0.000003 -0.000003 -0.000001 -0.000004 0.000005 0.000002 0.000003 0.000001 0.039230 -0.011402 0.008390 -0.000001 -0.000001 0.000003 0.000002 -0.000001 0.000003 -0.000001 0.000001 0.000001 0.000004 0.000000 0.000000 0.043417 0.002450 0.002889 -0.000001 -0.000002 -0.000003 -0.000000 -0.000004 -0.000005 -0.000001 -0.000000 -0.000001 -0.000003 0.000001 0.000001 -0.016662 0.078957 0.057696 -2.666058 8.494897 -39.923767 -0.176972 -0.020537 -0.095144 -25.012370 8.021776 21.205731 -0.957349 8.980719 -31.514056 -0.000000 0.000001 -0.000003 -0.021773 -0.038278 0.012988 -0.000001 -0.000002 0.000002 -0.000000 0.000003 0.000006 -0.000000 -0.000002 -0.000003 0.000000 -0.000002 0.000003 0.009114 -0.002381 -0.024211 0.000002 -0.000001 0.000003 -0.000001 0.000000 -0.000001 0.000001 0.000000 -0.000004 -0.032828 -0.025095 0.012286 -0.000001 -0.000000 -0.000003 0.000001 -0.000000 -0.000003 -0.000000 -0.000003 -0.000006 -0.000001 0.000001 -0.000004 -0.039192 -0.011488 0.008390 -0.000000 -0.000000 -0.000000 -0.000002 0.000003 0.000000 0.000001 -0.000001 -0.000002 0.000002 -0.000003 0.000000 -0.043421 0.002443 0.002845 -0.000001 0.000001 0.000004 -0.000002 0.000002 0.000004 0.000001 -0.000001 0.000003 -0.000001 0.000000 0.000002 0.000000 -0.000000 -0.000000 -1.243587 0.155024 -3.138979 -16.096596 -0.249270 -2.316294 45.381211 1.757560 -18.032287 -0.000003 -0.000001 0.000000 -0.000004 -0.000001 -0.000000 0.000000 0.000001 0.000002 -0.038000 -0.085200 0.016200 -0.000001 -0.000001 -0.000000 0.000000 -0.000000 0.000000 -1.212551 0.153648 -1.904876 -9.911867 0.045039 -0.277444 38.698540 -0.028850 0.291916 0.000000 -0.000001 -0.000000 -0.000003 -0.000001 0.000000 0.000009 -0.000002 0.000001 0.038000 -0.085200 0.016200 0.000000 -0.000001 0.000002 
-0.007525 0.287171 -0.013773 -4.773075 143.231198 5.704503 -0.000000 0.000001 -0.000000 0.000000 -0.000007 0.000001 0.000000 -0.000003 0.000000 -0.000000 -0.000003 -0.000000 0.000924 0.155147 0.009274 8.816435 -0.010636 4.620019 0.019937 0.078966 0.057518 7.643712 7.349410 35.125675 0.177025 -0.020465 -0.095062 -14.728780 4.452970 -31.404431 0.036315 2.360839 27.404114 -0.000000 0.000001 0.000003 0.021770 -0.038291 0.012954 -0.000004 -0.000005 -0.000002 -0.000002 -0.000003 -0.000000 -0.000002 0.000003 0.000005 -0.000000 0.000003 -0.000002 -0.009090 -0.002348 -0.024223 -0.000000 -0.000003 0.000001 0.000003 0.000001 -0.000000 0.000001 0.000004 -0.000002 0.032823 -0.025104 0.012281 -0.000002 0.000000 0.000002 -0.000001 0.000002 -0.000002 0.000000 -0.000001 0.000005 -0.000000 -0.000006 0.000000 0.039230 -0.011402 0.008390 -0.000000 -0.000002 0.000001 0.000004 0.000000 0.000001 -0.000002 0.000008 -0.000000 0.000001 -0.000004 0.000002 0.043417 0.002450 0.002889 0.000000 -0.000002 -0.000003 -0.000003 -0.000006 -0.000000 0.000002 0.000002 0.000000 -0.000001 -0.000001 -0.000001 -0.016662 0.078957 0.057696 -0.891930 7.669210 -39.370754 -0.176972 -0.020537 -0.095144 -29.172797 7.657644 24.611210 -2.135641 6.376784 -20.143758 -0.000002 0.000000 0.000002 -0.021773 -0.038278 0.012988 0.000000 -0.000003 -0.000005 -0.000002 0.000002 0.000001 0.000000 -0.000000 0.000001 0.000002 0.000000 0.000006 0.009113 -0.002381 -0.024211 -0.000000 -0.000005 0.000006 0.000000 -0.000003 -0.000002 0.000000 0.000001 -0.000003 -0.032828 -0.025095 0.012286 0.000001 -0.000002 -0.000005 -0.000000 0.000002 -0.000006 0.000003 -0.000003 0.000004 0.000003 -0.000000 -0.000002 -0.039192 -0.011488 0.008390 -0.000001 -0.000003 -0.000002 0.000002 0.000003 -0.000003 -0.000000 -0.000001 -0.000004 -0.000001 0.000001 -0.000001 -0.043421 0.002443 0.002845 -0.000000 -0.000001 -0.000002 -0.000006 0.000005 -0.000001 -0.000002 -0.000003 0.000000 -0.000002 -0.000000 0.000001 0.000000 0.000000 0.000000 -1.340872 0.256623 -4.419452 -22.689147 -0.318423 -2.882995 46.837469 1.782435 -18.296765 -0.000002 0.000001 0.000001 -0.000004 -0.000001 -0.000001 0.000002 0.000000 0.000000 -0.038000 -0.085200 0.016200 -0.000001 -0.000003 -0.000003 0.000000 0.000000 0.000000 -1.304658 0.254206 -3.185426 -21.198954 0.139833 0.275212 48.146871 -0.021267 0.215623 -0.000002 0.000001 -0.000001 0.000003 -0.000003 0.000000 0.000002 -0.000003 0.000003 0.038000 -0.085200 0.016200 0.000002 -0.000000 -0.000002 
